<?xml version="1.0" encoding="UTF-8"?> <svg xmlns="http://www.w3.org/2000/svg" viewBox="0 0 540 540"><defs><style>.cls-1{fill:#ba3138;}.cls-2{fill:#fff;}.cls-3{fill:#183059;}.cls-4{fill:#445a7a;}.cls-5{fill:#978ab2;}.cls-6{fill:#76659a;}.cls-7{fill:#b6b2b0;}.cls-8{fill:#543d80;}.cls-9{fill:#231f21;}.cls-10{fill:#fccc75;}.cls-11{fill:none;}.cls-12{fill:#faa919;}.cls-13{fill:#529d65;}.cls-14{fill:#278542;}.cls-15{fill:#7fb68b;}.cls-16{fill:#f9b948;}.cls-17{fill:#edeae7;}.cls-18{fill:#e2dcd7;}.cls-19{fill:#f58b4e;}</style></defs><g id="BG"><rect class="cls-1" width="540" height="540"></rect></g><g id="Illos"><path class="cls-2" d="M184,165.46h-24.2a3,3,0,0,0-3,3v54.45a3,3,0,0,0,3,3H184a3,3,0,0,0,3-3V168.48A3,3,0,0,0,184,165.46Z"></path><path class="cls-2" d="M139.2,195.7H115a3,3,0,0,0-3,3v24.2a3,3,0,0,0,3,3H139.2a3,3,0,0,0,3-3v-24.2A3,3,0,0,0,139.2,195.7Z"></path><path class="cls-2" d="M230.57,135.21h-24.2a3,3,0,0,0-3,3v84.7a3,3,0,0,0,3,3h24.2a3,3,0,0,0,3-3v-84.7A3,3,0,0,0,230.57,135.21Z"></path><path class="cls-2" d="M223.41,86.82A7,7,0,0,0,218.74,85H194.21a6,6,0,0,0-4.51,1.93,4.81,4.81,0,0,0-1.24,3.18,4.47,4.47,0,0,0,1.3,3.17,4.56,4.56,0,0,0,3.13,1.36h16.43l-31.5,31.45-21-21a4.49,4.49,0,0,0-6.34,0l-31.27,31.27,6.34,6.34,28.1-28.1,21,21a4.47,4.47,0,0,0,6.34,0h0l35.15-34.72v16.46a5,5,0,0,0,1,3,3.72,3.72,0,0,0,1.31,1.07,4,4,0,0,0,1.73.38,5.12,5.12,0,0,0,3.19-1.21,6.67,6.67,0,0,0,2.43-5.26V92.17A7.25,7.25,0,0,0,223.41,86.82Z"></path><path class="cls-3" d="M322.9,398.88C324.24,410.61,311,415,305.12,417a4.22,4.22,0,0,0-2.8,4h0a1.36,1.36,0,0,0,1.12,1.33,56,56,0,0,0,18.41.63c8.78-1.28,12.87-1,15.94-2.54,1.86-.93,3-2.11,2.29-5-1.5-5.87-4.12-16.25-6.19-25.5h-14C321.61,394.11,322.73,397.34,322.9,398.88Z"></path><path class="cls-3" d="M319.52,334.91a5.16,5.16,0,0,1-1.29-3.73l3-54.87a48.07,48.07,0,0,1-11,15.07c-4.45,4.21-10.92,10.21-17.93,16.69l2.4,25.19a15.38,15.38,0,0,0,1.48,5.23c1.07,2.2,2.79,5.74,4.86,10h26.05A41.61,41.61,0,0,0,319.52,334.91Z"></path><path class="cls-4" d="M191.66,412.12c-6.52,4.5-13,5.74-16.76,5.17s-3.94,3.94-3.94,3.94c3,4.28,17.1,4.73,17.1,4.73l23.48-.91a3.54,3.54,0,0,0,3.32-2.75,176.78,176.78,0,0,1,7.07-23.7H206.11A67,67,0,0,1,191.66,412.12Z"></path><path class="cls-4" d="M324.55,260.89l-3.15-19.8.12-.14-34.12,4.3-.85,2.28.27,9.81A26.62,26.62,0,0,1,280.74,275l-45.43,55.13a34,34,0,0,0-5.57,9.63L223.6,356h26.2a52.19,52.19,0,0,0,2.4-9.37,5.78,5.78,0,0,1,1.81-3.38c5.32-4.87,23.1-21.14,38.32-35.2,7-6.48,13.48-12.48,17.93-16.69a48.07,48.07,0,0,0,11-15.07C325.28,267.5,324.55,260.89,324.55,260.89Z"></path><path class="cls-5" d="M209,393.89a24.48,24.48,0,0,1-2.88,4.71h15.82c2.13-5.35,4.61-10.13,7.32-12.7C241.17,375.19,247,364,249.8,356H223.6C217.72,371.57,210.53,390.42,209,393.89Z"></path><path class="cls-6" d="M330.85,371.61a70.48,70.48,0,0,0-3.73-23.09H301.07c5.81,12.1,14.34,30.2,18.83,41.36h14C332,381.36,330.54,373.8,330.85,371.61Z"></path><path class="cls-7" d="M192.47,310.67a85.69,85.69,0,0,0-53.12-18.34,1.38,1.38,0,0,0,0,2.75A83.36,83.36,0,0,1,219.65,356h2.85a85.48,85.48,0,0,0-11.22-24.93A86.42,86.42,0,0,0,192.47,310.67Z"></path><path class="cls-8" d="M219.83,225.59l-2.26-6.09s1.05-2.9-.14-4.46a.43.43,0,0,0-.74.13l-1.53,4.43,1.75,6Z"></path><path class="cls-8" d="M217.84,228.43l-9.76-9.06a.45.45,0,0,1,.26-.78,4.36,4.36,0,0,1,3.48,1.32,25.07,25.07,0,0,0,4.34,3.27Z"></path><path class="cls-6" d="M233.85,228.3l-12.19-9.44a.51.51,0,0,0-.81.36c-.1,1.08.33,3.15,3.81,5.69l2.66,4.19Z"></path><path class="cls-9" d="M321,183.14h0a3.91,3.91,0,0,0-.53-5.1l-5.21-4.88a.89.89,0,0,1-.13-1.16h0a2,2,0,0,0-.15-2.51l-14.76-17.26s-12.15-15.9-25.36-10.2c-13.7,5.91-13.2,17.7-13.2,17.7v29.44a2.07,2.07,0,0,0,2.07,2.07h.06a2,2,0,0,0,2-2v-9.85c0-.07.1-.08.11,0l2.59,8.65a1.9,1.9,0,0,0,2.35,1.3,1.87,1.87,0,0,0,1.22-2.46l-.13-.34a.41.41,0,0,1,.16-.5.4.4,0,0,1,.58.21l1.35,4.3a2.06,2.06,0,0,0,2.6,1.36h0a2.07,2.07,0,0,0,1.4-2.46l-.59-2.45a.44.44,0,0,1,.21-.48.41.41,0,0,1,.57.24h0a1.4,1.4,0,0,0,1.35,1H280a1.39,1.39,0,0,0,1-1.41.37.37,0,0,1,.25-.37h0a.37.37,0,0,1,.47.23l.41,1.25a1.64,1.64,0,0,0,2.07,1h0a1.65,1.65,0,0,0,1.06-2.07l-.29-.87a2.51,2.51,0,0,0,3.53-1.2l19.47-5,9.79,9.79a3.3,3.3,0,0,0,4.65,0h0a3.3,3.3,0,0,0,0-4.65Z"></path><path class="cls-5" d="M264.4,165.26l1.15-.82a5.12,5.12,0,0,1,7,1.07L279.8,175a1.08,1.08,0,0,0,1.49.21l1.32-1a.36.36,0,0,1,.51.06l.62.73a1.08,1.08,0,0,0,1.49.14l1.35-1.08a.38.38,0,0,1,.51,0l.66.66a1.08,1.08,0,0,0,1.39.11l1.61-1.11a.39.39,0,0,1,.52.08l.8,1.07L282.24,183a2.84,2.84,0,0,1-3.42.18l-3-2-1.32-.08a.8.8,0,0,1-.76-.78l0-1.06-1.28.12a.81.81,0,0,1-.86-.62l-.48-2.2H269a1.48,1.48,0,0,1-1.48-1.31l-.54-4.49a1.28,1.28,0,0,0-.85-1.06l-.82-.28a1.27,1.27,0,0,1-.84-1l-.41-2.3A.89.89,0,0,1,264.4,165.26Z"></path><path class="cls-10" d="M324.89,236.92s-1.58-15.3-3-31.73-4.27-32.52-19.58-32.86-17.33,12-17.33,12l-6.28,29.71,19.79,1.39L287.4,245.25l34.12-4.3Z"></path><path class="cls-11" d="M216.24,223.15l2.25,1.07-2.25-1.3Z"></path><path class="cls-3" d="M216.24,222.92l2.25,1.3,3.62,1.72,3.42.48L216.11,221A11.31,11.31,0,0,1,216.24,222.92Z"></path><path class="cls-3" d="M209.28,217a.35.35,0,0,0-.47.13l-.46.81a.34.34,0,0,0,.12.47l4.91,2.83-.11-1.93Z"></path><path class="cls-6" d="M213.71,217.07a.38.38,0,0,0-.55.35l.11,1.92,2.84,1.64C215.7,218.47,214.45,217.45,213.71,217.07Z"></path><path class="cls-6" d="M277.84,221.38l-39.14,9a3.21,3.21,0,0,1-2.6-.53l-3.26-2.36-7.31-1,2.94,1.7a.33.33,0,0,1,.13.47l-.46.8a.36.36,0,0,1-.48.13l-9.17-5.3-2.25-1.07v-.23l-2.86-1.65.17,3.14,5.85,5.77,13.41,6.93a9.63,9.63,0,0,0,5.27,1l40.32-5Z"></path><path class="cls-3" d="M218.49,224.22l9.17,5.3a.36.36,0,0,0,.48-.13l.46-.8a.33.33,0,0,0-.13-.47l-2.94-1.7-3.42-.48Z"></path><path class="cls-6" d="M216.11,221l-2.84-1.64.11,1.93,2.86,1.65A11.31,11.31,0,0,0,216.11,221Z"></path><polygon class="cls-12" points="334.73 278.06 330.79 276.89 327.66 287.39 331.95 287.39 334.73 278.06"></polygon><path class="cls-12" d="M297.06,390,183.66,280.44l-2.86,3L296.63,395.3a2.05,2.05,0,0,0,1.43.58,2.39,2.39,0,0,0,.53-.06,2.1,2.1,0,0,0,1.45-1.41L330.31,292.9H326Z"></path><polygon class="cls-7" points="327.66 287.39 326.01 292.9 330.31 292.9 331.95 287.39 327.66 287.39"></polygon><path class="cls-13" d="M399.8,222.66c-2.15-4.57-.13-4-1.17-10.2-.48-2.82-2.41-6.07-2.43-9.92,0-3.07,1.74-6.34,2.24-10,.44-3.12-.44-6.74.52-10.21,1.85-6.64,5.6-8.81,8.79-9.33,3.58-.58,8.09.9,11.54,5.74,2.32,3.25,3,8.16,4.55,13,1.32,4.11,3.79,8.35,4.15,13.11.24,3.17-1.25,6.12-1.28,8.76,0,3.28,1.32,6.27,1,8.8-.46,3.47-2.68,5.91-3.43,8.14-1.87,5.6.61,5.9-2.88,8.5-2.85,2.13-2.89.31-7.06-1.44-1.69-.71-4.5-.71-6.59-2.89-1.38-1.44-1.6-4.26-3.09-6.6C403.51,226.34,401,225.05,399.8,222.66Z"></path><polygon class="cls-14" points="417.3 240.11 414.53 217.86 421.92 206.24 421.19 205.78 414.36 216.52 412.06 198.01 419.11 186.93 418.38 186.46 411.89 196.66 410.37 184.45 414.34 178.21 413.42 177.63 409.35 184.03 407.54 182.88 406.95 183.79 408.57 184.82 411.27 206.51 400.52 199.68 400.06 200.41 411.4 207.62 413.74 226.41 403.07 219.63 402.61 220.36 413.88 227.53 415.48 240.34 417.3 240.11"></polygon><path class="cls-15" d="M399.84,230.73c-3.77-3.37-1.68-3.63-5-8.93-1.54-2.42-4.57-4.66-6.1-8.2-1.21-2.82-.86-6.52-1.81-10.06-.81-3-3-6-3.5-9.6-.88-6.84,1.73-10.29,4.47-12,3.07-1.93,7.8-2.32,12.86.8,3.41,2.09,6,6.35,9.24,10.18,2.82,3.27,6.74,6.21,8.93,10.46,1.45,2.82,1.23,6.12,2.23,8.56,1.24,3,3.65,5.27,4.33,7.73.92,3.38-.18,6.49,0,8.84.46,5.88,2.86,5.19.66,8.95-1.8,3.07-2.54,1.41-7.07,1.42-1.83,0-4.42,1.1-7.19-.1-1.84-.79-3.13-3.3-5.42-4.88C404.69,232.68,401.85,232.48,399.84,230.73Z"></path><polygon class="cls-14" points="422.75 240 411.54 220.59 413.83 207 412.98 206.86 410.87 219.41 401.54 203.25 403.72 190.3 402.86 190.16 400.86 202.08 394.71 191.42 395.94 184.13 394.87 183.95 393.61 191.44 391.48 191.08 391.3 192.15 393.19 192.47 404.12 211.39 391.56 209.28 391.42 210.13 404.68 212.36 414.14 228.77 401.67 226.67 401.53 227.52 414.7 229.74 421.16 240.92 422.75 240"></polygon><path class="cls-16" d="M448.63,207.27h0a5.21,5.21,0,0,1,6.82-2.8l8.42,3.53q1.29-3.92,2.3-7.55l-8.81-3.69a5.21,5.21,0,0,1-2.8-6.82h0a5.21,5.21,0,0,1,6.82-2.8l7.17,3c1.55-8.86,1.1-14.95-1.73-16.13-5.57-2.34-18.29,15.34-28.39,39.48s-13.77,45.61-8.19,47.95c2.94,1.23,7.86-3.1,13.33-11l-7.38-3.09a5.21,5.21,0,0,1-2.8-6.82h0a5.21,5.21,0,0,1,6.82-2.79l8.94,3.74c1.24-2.19,2.48-4.52,3.71-7L444.37,231a5.21,5.21,0,0,1-2.8-6.82h0a5.21,5.21,0,0,1,6.82-2.8l8.91,3.73c.45-1,.89-2.06,1.33-3.11q.87-2.08,1.68-4.14l-8.88-3.72A5.21,5.21,0,0,1,448.63,207.27Z"></path><path class="cls-10" d="M454.56,189.94h0a5.21,5.21,0,0,0,2.8,6.82l8.81,3.69c1-3.72,1.83-7.19,2.38-10.31l-7.17-3A5.21,5.21,0,0,0,454.56,189.94Z"></path><path class="cls-10" d="M455.45,204.47a5.21,5.21,0,0,0-6.82,2.8h0a5.21,5.21,0,0,0,2.8,6.82l8.88,3.72c1.32-3.36,2.51-6.65,3.56-9.81Z"></path><path class="cls-17" d="M441.57,224.13h0a5.21,5.21,0,0,0,2.8,6.82l8.49,3.56c1.51-3,3-6.15,4.44-9.45l-8.91-3.73A5.21,5.21,0,0,0,441.57,224.13Z"></path><path class="cls-17" d="M433.39,240.52h0a5.21,5.21,0,0,0,2.8,6.82l7.38,3.09c1.82-2.62,3.7-5.63,5.58-9l-8.94-3.74A5.21,5.21,0,0,0,433.39,240.52Z"></path><path class="cls-16" d="M430.91,213.35h0a5.22,5.22,0,0,1,4.37-5.94l9-1.37c-.62-2.67-1.27-5.23-2-7.65l-9.45,1.44a5.21,5.21,0,0,1-5.93-4.37h0a5.2,5.2,0,0,1,4.37-5.94l7.68-1.17c-3.28-8.37-6.84-13.34-9.86-12.88-6,.91-7.65,22.62-3.72,48.5s12,46.12,17.93,45.21c3.16-.48,5.11-6.74,5.67-16.34l-7.91,1.2a5.2,5.2,0,0,1-5.94-4.37h0a5.21,5.21,0,0,1,4.37-5.93l9.59-1.46c-.09-2.51-.23-5.14-.45-7.87l-9.11,1.38a5.21,5.21,0,0,1-5.93-4.37h0a5.2,5.2,0,0,1,4.37-5.94l9.54-1.45c-.15-1.1-.31-2.22-.48-3.35q-.34-2.24-.72-4.41l-9.52,1.45A5.22,5.22,0,0,1,430.91,213.35Z"></path><path class="cls-10" d="M427,195.46h0a5.21,5.21,0,0,0,5.93,4.37l9.45-1.44c-1.05-3.71-2.17-7.08-3.33-10l-7.68,1.17A5.2,5.2,0,0,0,427,195.46Z"></path><path class="cls-10" d="M435.28,207.41a5.22,5.22,0,0,0-4.37,5.94h0a5.22,5.22,0,0,0,5.94,4.37l9.52-1.45c-.62-3.55-1.31-7-2.06-10.23Z"></path><path class="cls-17" d="M433.66,231.42h0a5.21,5.21,0,0,0,5.93,4.37l9.11-1.38c-.27-3.33-.65-6.81-1.13-10.38L438,225.48A5.2,5.2,0,0,0,433.66,231.42Z"></path><path class="cls-17" d="M435.19,249.67h0a5.2,5.2,0,0,0,5.94,4.37l7.91-1.2c.19-3.18.23-6.73.11-10.56l-9.59,1.46A5.21,5.21,0,0,0,435.19,249.67Z"></path><path class="cls-2" d="M171.22,264a.61.61,0,0,0-.91-.53,16.26,16.26,0,0,0,0,28.46.62.62,0,0,0,.91-.54Z"></path><polygon class="cls-18" points="456.25 219.88 454.01 221.26 451.77 219.88 449.53 221.26 447.29 219.88 445.05 221.26 442.81 219.88 440.57 221.26 438.33 219.88 436.09 221.26 433.85 219.88 431.61 221.26 429.37 219.88 427.13 221.26 424.86 219.88 422.59 221.26 420.32 219.88 418.05 221.26 415.78 219.88 413.51 221.26 411.25 219.88 408.98 221.26 406.71 219.88 404.44 221.26 402.17 219.88 399.9 221.26 397.63 219.88 395.36 221.26 393.54 220.15 393.54 288.13 459.49 288.13 459.49 220.64 458.49 221.26 456.25 219.88"></polygon><path class="cls-7" d="M479.51,345.09a1.38,1.38,0,0,1-1.27-.84,83.36,83.36,0,0,0-133.48-28.66,1.37,1.37,0,1,1-1.87-2,86.11,86.11,0,0,1,137.88,29.6A1.38,1.38,0,0,1,480,345,1.44,1.44,0,0,1,479.51,345.09Z"></path><path class="cls-11" d="M112.42,314.66a69.12,69.12,0,1,0,57.6,1.71l-25.45,63.06a2.06,2.06,0,0,1-3.82-1.54l25.52-63.23a69.47,69.47,0,0,0-53.85,0Z"></path><path class="cls-3" d="M188.28,329.49a69,69,0,1,1-22-14.83l3.59-8.91a78,78,0,1,0,3.76,1.69l-3.6,8.93A69.07,69.07,0,0,1,188.28,329.49Z"></path><path class="cls-7" d="M141.89,380.57a2.05,2.05,0,0,0,2.68-1.14L170,316.37c-1.23-.6-2.47-1.17-3.74-1.71h0l-25.52,63.23A2,2,0,0,0,141.89,380.57Z"></path><path class="cls-12" d="M307.34,360.39a70.12,70.12,0,0,1-46.69-19.19l-76-72-14.75,36.55.17.07c1.21.51,2.41,1.05,3.59,1.62l12.55-31.09L259,345.28a70.18,70.18,0,0,0,46.69,19.2l1.59,0,.09-4.12Z"></path><path class="cls-12" d="M169.86,305.75l-3.59,8.91h0c1.27.54,2.51,1.11,3.74,1.71l3.6-8.93c-1.18-.57-2.38-1.11-3.59-1.62Z"></path><path class="cls-11" d="M401.43,378.93l-67.65,11.45a69.65,69.65,0,1,0-1.4-13.94,70.49,70.49,0,0,0,.7,9.88l67.66-11.45Z"></path><path class="cls-12" d="M314.34,389.5l.69,4.06L324.3,392c-.26-1.35-.5-2.7-.7-4.06Z"></path><path class="cls-7" d="M401.43,378.93l-.69-4.06-67.66,11.45c.19,1.36.43,2.72.7,4.06Z"></path><path class="cls-12" d="M333.08,386.32l-9.48,1.61c.2,1.36.44,2.71.7,4.06l9.48-1.61C333.51,389,333.27,387.68,333.08,386.32Z"></path><path class="cls-19" d="M248.55,272.31a2.15,2.15,0,0,1-.77-.15l-29.89-12c-.62-.26-1.26-.5-1.9-.7a2.06,2.06,0,0,1,1.25-3.93c.75.24,1.49.52,2.22.82l29.86,12a2.06,2.06,0,0,1-.77,4Z"></path><path class="cls-12" d="M179.23,293.62l-3.82-1.54,8.1-20.65a27.43,27.43,0,0,1,33.73-15.89L216,259.47A23.29,23.29,0,0,0,187.33,273Z"></path><path class="cls-11" d="M401.58,307.24a68.92,68.92,0,0,0-43.71,15.55l43.46,52.34,37.56-57a68,68,0,0,0-10.38-5.47A68.71,68.71,0,0,0,401.58,307.24Z"></path><path class="cls-11" d="M331.47,291l20.26,24.41a78.86,78.86,0,0,1,80.52-11.57,77.54,77.54,0,0,1,11.93,6.3L456.8,291Z"></path><path class="cls-3" d="M401.58,297.63a78.54,78.54,0,0,0-49.85,17.77l6.14,7.39a69.27,69.27,0,0,1,70.64-10.11,68,68,0,0,1,10.38,5.47l5.29-8a77.54,77.54,0,0,0-11.93-6.3A78.33,78.33,0,0,0,401.58,297.63Z"></path><path class="cls-3" d="M345.86,320.72a78.55,78.55,0,0,0-23.09,55.72,79.8,79.8,0,0,0,.83,11.49l9.48-1.61a70.49,70.49,0,0,1-.7-9.88,69,69,0,0,1,20.27-48.93q2-2,4.16-3.84l-6.14-7.39C349,317.68,347.41,319.16,345.86,320.72Z"></path><path class="cls-3" d="M474.19,345.76a79.34,79.34,0,0,0-28.86-34.88l-5.29,8a69.6,69.6,0,0,1,25.3,30.6,69.22,69.22,0,1,1-131.56,40.88L324.3,392a78.82,78.82,0,1,0,149.89-46.23Z"></path><path class="cls-7" d="M331.47,291H456.8l-12.62,19.14c.39.24.77.5,1.15.75l13.31-20.2a.68.68,0,0,0,0-.7.7.7,0,0,0-.61-.36H330a.68.68,0,0,0-.52,1.12l21.19,25.54,1.06-.88Z"></path><path class="cls-7" d="M401.33,375.13l-43.46-52.34-1.06.88,44.05,53.05a.69.69,0,0,0,.53.25h0a.67.67,0,0,0,.53-.31L440,318.9l-1.15-.75Z"></path><path class="cls-7" d="M444.18,310.13l-5.29,8,1.15.75,5.29-8C445,310.63,444.57,310.37,444.18,310.13Z"></path><path class="cls-7" d="M351.73,315.4l-1.06.88,6.14,7.39,1.06-.88Z"></path><circle class="cls-12" cx="298.14" cy="393.18" r="19.41"></circle><path class="cls-19" d="M287.88,429.43a2.6,2.6,0,0,1-.82-.13,2.73,2.73,0,0,1-1.8-3.43L295.48,393a2.74,2.74,0,1,1,5.24,1.63L290.5,427.5A2.76,2.76,0,0,1,287.88,429.43Z"></path><rect class="cls-19" x="273.59" y="424.85" width="28.23" height="4.98" rx="2.15"></rect><circle class="cls-7" cx="402" cy="376.82" r="5.29"></circle><path class="cls-7" d="M463.12,234.36H379.35a.7.7,0,0,0-.7.71v54.55h85.18V235.07A.71.71,0,0,0,463.12,234.36Zm-6.3,49.18a1.12,1.12,0,0,1-1.13,1.12H386.78a1.13,1.13,0,0,1-1.13-1.12v-8.4a1.13,1.13,0,0,1,1.13-1.12h68.91a1.12,1.12,0,0,1,1.13,1.12Zm0-17.35a1.13,1.13,0,0,1-1.13,1.13H386.78a1.14,1.14,0,0,1-1.13-1.13v-8.4a1.13,1.13,0,0,1,1.13-1.12h68.91a1.12,1.12,0,0,1,1.13,1.12Zm0-17.35a1.13,1.13,0,0,1-1.13,1.13H386.78a1.14,1.14,0,0,1-1.13-1.13v-8.4a1.13,1.13,0,0,1,1.13-1.12h68.91a1.12,1.12,0,0,1,1.13,1.12Z"></path><path class="cls-12" d="M183.5,277.32a16.35,16.35,0,0,0-7.43-13.72v27.45A16.37,16.37,0,0,0,183.5,277.32Z"></path><path class="cls-19" d="M168.5,261a1.29,1.29,0,0,0-1.39,1.29v30.09a1.29,1.29,0,0,0,1.39,1.29,16.32,16.32,0,0,0,7.57-2.61V263.6A16.21,16.21,0,0,0,168.5,261Z"></path><path class="cls-19" d="M360.81,266.18a7.45,7.45,0,0,0-7.6-7.36h0c-4.37.15-6.86.78-12.07,2.3-3.76,1.1-10.44,2-22,1.22a15.62,15.62,0,0,0-14,6.78,1,1,0,0,0,.42,1.52l19.86,8.78a15.18,15.18,0,0,0,11.56.3l22.9-8.73a1.51,1.51,0,0,0,1-1.42Z"></path><path class="cls-6" d="M207.3,260.55l-.12,8.22a1.05,1.05,0,0,0,.22.64l3.19,4.15a.32.32,0,0,0,.55-.11,5.17,5.17,0,0,0-1.14-4.61.71.71,0,0,1-.14-.42v-3.54Z"></path><path class="cls-5" d="M278.66,214.08l-4.74,22.63a.9.9,0,0,1-.39.56l-49.67,6.66a8.7,8.7,0,0,0-5.54,3l-10.85,13a.87.87,0,0,0-.12.94l3.89,8a.82.82,0,0,0,.45.43l4.71,2a.87.87,0,0,0,1-1.31,5,5,0,0,0-1.76-1.51.07.07,0,0,1,0-.14l5,.33a.87.87,0,0,0,.71-1.45c-1.09-1.23-3.07-1.33-4.12-1.29a.86.86,0,0,1-.88-.67l-.59-2.44a.88.88,0,0,1,.35-.92l5.78-4a10.08,10.08,0,0,0,3.73-4.92l.53-1.54a.86.86,0,0,1,.47-.5l58.35-1.79a2.82,2.82,0,0,0,1.47-1.58l11.9-32.06Z"></path></g></svg> 